<?xml version="1.0" encoding="utf-8"?>
<!-- Generator: Adobe Illustrator 19.2.1, SVG Export Plug-In . SVG Version: 6.00 Build 0)  -->
<svg version="1.1" id="Layer_1" xmlns="http://www.w3.org/2000/svg" xmlns:xlink="http://www.w3.org/1999/xlink" x="0px" y="0px"
	 viewBox="0 0 173.9 173.3" enable-background="new 0 0 173.9 173.3" xml:space="preserve">
<path fill="#0275D8" d="M163.7,45.4c-4-7.2-9.1-13.9-15.3-20.1c-8.5-8.5-17.9-14.8-28.1-19c-9-3.7-18.7-5.8-29.1-6.2
	C89.7,0,88.3,0,86.9,0H3C1.3,0,0,1.3,0,3v167.3c0,1.7,1.3,3,3,3h83.9c1.4,0,2.8,0,4.2-0.1c22.2-0.9,41.3-9.4,57.3-25.3
	c17-16.9,25.5-37.3,25.5-61.2C173.9,71.4,170.5,57.7,163.7,45.4z M145,74.8l-30,29.9c-0.8,0.8-2,0.8-2.8,0l-30-29.9
	c-0.5-0.5-0.9-0.9-1.3-1.4c-2.8-3.3-4.2-7.2-4.2-11.8c0-5.2,1.8-9.5,5.4-13.2c1.3-1.2,2.6-2.2,4-3.1c2.7-1.6,5.8-2.4,9.3-2.4
	c3.4,0,6.5,0.8,9.2,2.4c1.4,0.8,2.7,1.8,4,3.1l4.2,4.3c0.4,0.4,1,0.4,1.4,0l4.2-4.3c0.6-0.6,1.1-1,1.7-1.5c0.7-0.6,1.5-1.1,2.3-1.6
	c2.8-1.6,5.8-2.4,9.3-2.4c3.4,0,6.5,0.8,9.3,2.4c1.4,0.8,2.7,1.8,3.9,3.1c3.7,3.6,5.5,8,5.5,13.2C150.5,66.8,148.7,71.1,145,74.8z"
	/>
</svg>
